HIERARCHY
ROOT Hips
{
	OFFSET -3.958830 18.904000 13.208200
	CHANNELS 6 Xposition Yposition Zposition Zrotation Yrotation Xrotation 
	JOINT LHipJoint
	{
		OFFSET 0.000000 0.000000 0.000000
		CHANNELS 3 Zrotation Yrotation Xrotation
		JOINT LeftUpLeg
		{
			OFFSET 1.800000 -1.400000 0.085000
			CHANNELS 3 Zrotation Yrotation Xrotation
			JOINT LeftLeg
			{
				OFFSET 2.215000 -6.000000 0.000000
				CHANNELS 3 Zrotation Yrotation Xrotation
				JOINT LeftFoot
				{
					OFFSET 2.500000 -6.900000 0.000000
					CHANNELS 3 Zrotation Yrotation Xrotation
					JOINT LeftToeBase
					{
						OFFSET 0.200000 -0.500000 1.950000
						CHANNELS 3 Zrotation Yrotation Xrotation
						End Site
						{
							OFFSET 0.000000 0.000000 0.000000
						}
					}
				}
			}
		}
	}
	JOINT RHipJoint
	{
		OFFSET 0.000000 0.000000 0.000000
		CHANNELS 3 Zrotation Yrotation Xrotation
		JOINT RightUpLeg
		{
			OFFSET -1.800000 -1.400000 0.085000
			CHANNELS 3 Zrotation Yrotation Xrotation
			JOINT RightLeg
			{
				OFFSET -2.215000 -6.000000 0.000000
				CHANNELS 3 Zrotation Yrotation Xrotation
				JOINT RightFoot
				{
					OFFSET -2.500000 -6.900000 0.000000
					CHANNELS 3 Zrotation Yrotation Xrotation
					JOINT RightToeBase
					{
						OFFSET -0.200000 -0.500000 1.950000
						CHANNELS 3 Zrotation Yrotation Xrotation
						End Site
						{
							OFFSET 0.000000 0.000000 0.000000
						}
					}
				}
			}
		}
	}
	JOINT LowerBack
	{
		OFFSET 0.000000 0.000000 0.000000
		CHANNELS 3 Zrotation Yrotation Xrotation
		JOINT Spine
		{
			OFFSET -0.087000 1.940000 -0.288900
			CHANNELS 3 Zrotation Yrotation Xrotation
			JOINT Spine1
			{
				OFFSET 0.000000 1.950000 0.060000
				CHANNELS 3 Zrotation Yrotation Xrotation
				JOINT Neck
				{
					OFFSET 0.000000 0.000000 0.000000
					CHANNELS 3 Zrotation Yrotation Xrotation
					JOINT Neck1
					{
						OFFSET 0.000000 1.600000 0.340000
						CHANNELS 3 Zrotation Yrotation Xrotation
						JOINT Head
						{
							OFFSET 0.000000 1.667000 -0.240000
							CHANNELS 3 Zrotation Yrotation Xrotation
							End Site
							{
								OFFSET 0.000000 0.000000 0.000000
							}
						}
					}
				}
				JOINT LeftShoulder
				{
					OFFSET 0.000000 0.000000 0.000000
					CHANNELS 3 Zrotation Yrotation Xrotation
					JOINT LeftArm
					{
						OFFSET 2.700000 1.550000 -0.730000
						CHANNELS 3 Zrotation Yrotation Xrotation
						JOINT LeftForeArm
						{
							OFFSET 5.450000 0.000000 0.000000
							CHANNELS 3 Zrotation Yrotation Xrotation
							JOINT LeftHand
							{
								OFFSET 3.450000 0.000000 0.000000
								CHANNELS 3 Zrotation Yrotation Xrotation
								JOINT LeftHandIndex1
								{
									OFFSET 0.750000 0.000000 0.000000
									CHANNELS 3 Zrotation Yrotation Xrotation
									End Site
									{
										OFFSET 0.000000 0.000000 0.000000
									}
								}
							}
						}
					}
				}
				JOINT RightShoulder
				{
					OFFSET 0.000000 0.000000 0.000000
					CHANNELS 3 Zrotation Yrotation Xrotation
					JOINT RightArm
					{
						OFFSET -2.700000 1.550000 -0.730000
						CHANNELS 3 Zrotation Yrotation Xrotation
						JOINT RightForeArm
						{
							OFFSET -5.450000 0.000000 0.000000
							CHANNELS 3 Zrotation Yrotation Xrotation
							JOINT RightHand
							{
								OFFSET -3.450000 0.000000 0.000000
								CHANNELS 3 Zrotation Yrotation Xrotation
								JOINT RightHandIndex1
								{
									OFFSET -0.750000 0.000000 0.000000
									CHANNELS 3 Zrotation Yrotation Xrotation
									End Site
									{
										OFFSET 0.000000 0.000000 0.000000
									}
								}
							}
						}
					}
				}
			}
		}
	}
}
MOTION
Frames: 14
Frame Time: 0.016667
-13.423890 15.554300 -1.642520 -7.982453 -15.698892 6.331965 -16.157288 10.393186 6.649314 20.653228 -2.496040 -55.773719 1.267876 2.177413 -15.102708 -0.410778 3.352892 2.938110 0.579190 0.753860 0.682660 17.915216 -6.537797 4.096588 -15.234963 14.725569 -38.070649 29.781554 -18.530802 40.722317 -1.744355 -8.239876 0.963200 0.282650 -0.358990 0.395000 -2.009169 -5.283683 -10.431019 3.808351 0.630697 62.823992 4.679110 5.915596 23.623034 5.791317 0.233782 -29.090166 -8.255391 12.035492 70.282060 -11.678060 12.989160 -23.933580 -18.459923 -42.934570 11.973097 -19.582156 -31.449859 -14.578917 27.530039 -17.534287 -7.752634 -3.545095 3.033856 0.717210 -0.264770 0.812120 -0.089300 8.291887 49.447425 10.082352 3.850690 19.224627 -24.653446 -23.037814 23.294753 -5.651763 2.388680 -1.454617 0.139000 0.168760 -0.067700 -0.094410 
-13.341220 15.587420 -1.588580 -8.121867 -15.513233 6.499417 -16.142066 10.541406 6.550923 21.769824 -1.883217 -53.403034 0.433648 2.189675 -14.250724 -0.373621 3.486078 2.902830 0.531920 0.695700 0.621980 17.904119 -6.612101 4.043133 -15.680517 14.486241 -37.328822 29.584621 -18.019222 39.821035 -1.658214 -8.063462 1.031340 0.254420 -0.315630 0.372450 -1.995183 -5.351565 -10.349276 4.052627 0.616087 62.666250 5.047241 5.687789 23.548393 5.626727 -0.200409 -28.512648 -9.261394 12.285569 68.514444 -10.288680 12.543040 -22.162700 -17.727650 -41.929379 11.099517 -21.021724 -27.841995 -13.663674 25.885914 -18.903488 -7.393466 -3.486520 3.066285 0.697170 -0.252270 0.761630 -0.082410 7.900761 48.493248 11.059523 4.945872 16.904894 -23.274801 -22.843657 22.770831 -5.453343 2.412992 -1.496668 0.117450 0.167280 -0.049630 -0.080620 
-13.252690 15.630630 -1.534350 -8.440736 -15.197173 6.740678 -16.103397 10.679588 6.468552 22.858345 -1.356873 -51.366244 -0.159088 2.286259 -13.055404 -0.301177 3.598508 2.897032 0.498870 0.642820 0.576570 17.911878 -6.754248 3.966615 -15.471052 14.237903 -36.444768 28.568977 -17.201917 39.041879 -1.556488 -7.800337 1.137100 0.219930 -0.259160 0.361110 -2.037247 -5.288841 -10.256181 4.718644 0.061202 62.356749 4.790808 5.463959 23.382871 5.503972 -0.430699 -27.946545 -9.506293 12.099810 66.850656 -8.769640 12.197350 -19.427370 -17.060040 -41.018035 10.219720 -21.303870 -23.710713 -12.769931 23.020793 -20.638729 -6.678991 -3.411969 3.103018 0.657240 -0.231510 0.714700 -0.044390 7.369520 47.417474 12.034502 6.262500 15.172781 -21.387255 -22.201255 21.646723 -5.077441 2.458231 -1.543075 0.108040 0.158110 -0.064950 -0.051220 
-13.155360 15.688490 -1.472820 -8.165367 -14.706517 6.475341 -16.055706 11.005064 6.262956 22.631404 -1.449881 -49.110013 -0.404495 2.327232 -11.552977 -0.279600 3.525458 2.944309 0.462740 0.612400 0.527670 17.896808 -6.979991 3.831727 -15.589108 13.479422 -34.992769 27.084494 -16.178779 38.009380 -1.441434 -7.448591 1.270197 0.189180 -0.216630 0.356630 -2.034747 -5.389871 -10.069383 4.915445 -0.097353 62.636767 4.863902 5.121134 22.580306 5.362869 -0.755327 -26.501740 -9.751866 12.046618 64.847790 -8.567720 12.080060 -18.746650 -16.543960 -39.743357 9.577410 -21.663846 -19.773202 -12.247452 19.995612 -23.491572 -6.212751 -3.329837 3.099524 0.630130 -0.213710 0.694940 -0.018700 6.928192 45.951977 12.506027 8.130998 13.273214 -19.577316 -21.643243 21.854742 -4.895071 2.448967 -1.528839 0.108280 0.167010 -0.064470 -0.021450 
-13.039140 15.754030 -1.403380 -7.804958 -13.944662 6.292847 -16.008649 11.343397 6.101076 22.296300 -1.706872 -46.918139 -1.521366 2.288458 -10.156951 -0.255609 3.434253 2.965199 0.417270 0.570590 0.481910 17.873187 -7.243101 3.647672 -15.577443 12.502557 -33.368571 24.890892 -14.960546 37.005854 -1.287774 -7.014311 1.403415 0.149190 -0.224100 0.340510 -2.016098 -5.506844 -9.884532 5.151997 -0.522238 62.839721 4.710465 4.601893 21.388873 5.496515 -1.062359 -25.272703 -9.894026 11.196008 62.910731 -8.624580 11.265870 -17.844790 -16.214167 -38.274577 9.224048 -21.882711 -15.843615 -12.207458 16.109602 -27.289830 -5.646793 -3.211433 3.140477 0.595740 -0.221300 0.666470 -0.036290 6.204627 44.539047 13.063316 10.048593 11.411849 -17.528586 -20.453154 21.878901 -4.462793 2.452003 -1.504956 0.123780 0.127980 -0.050810 -0.007890 
-12.915570 15.820300 -1.332370 -7.063158 -13.295521 6.653142 -15.972704 11.619925 5.994797 21.927432 -2.126556 -45.069461 -3.698530 2.216199 -8.741839 -0.212137 3.396934 2.975205 0.389370 0.523010 0.468240 17.850188 -7.484129 3.467177 -15.822407 11.507463 -32.483682 22.000000 -13.534099 36.216939 -1.123299 -6.541885 1.541386 0.105070 -0.231060 0.351960 -1.991066 -5.588629 -9.718649 5.236528 -0.448009 62.058680 4.689528 4.174813 20.506682 5.441396 -1.103880 -24.091530 -9.095889 10.887962 60.706248 -8.710720 11.872970 -16.292030 -15.777150 -36.944891 9.322729 -21.730429 -11.918486 -12.761587 11.529205 -31.800607 -4.976699 -3.095042 3.243902 0.558830 -0.216100 0.640530 -0.042450 5.664143 42.940707 13.572816 12.483527 9.732316 -15.798655 -20.394622 21.812806 -4.418909 2.492055 -1.533860 0.144250 0.053810 -0.062110 -0.002230 
-12.778840 15.885570 -1.262090 -6.224643 -12.752411 6.940881 -15.919646 11.912591 5.912522 21.284990 -2.666851 -43.266634 -6.312201 2.231911 -7.119872 -0.199819 3.413812 2.968641 0.318170 0.429580 0.416460 17.833781 -7.805783 3.219444 -15.799844 10.347152 -31.354910 18.102032 -11.815648 35.467537 -0.926362 -5.952978 1.729938 0.046850 -0.209250 0.343860 -1.996475 -5.611950 -9.521892 5.331712 -0.537302 61.293535 4.405790 3.712655 19.175538 5.380628 -1.242215 -23.011528 -8.619273 11.010964 58.689866 -8.340100 12.531150 -14.780480 -15.239057 -35.491410 9.609929 -21.769213 -7.818120 -13.614155 6.061398 -36.741581 -4.040537 -3.011883 3.319469 0.540560 -0.205500 0.593710 -0.064060 5.107106 41.210986 14.018942 15.037675 8.301201 -13.990862 -19.725934 21.689931 -4.150456 2.499415 -1.489515 0.129990 0.015060 -0.028590 -0.004420 
-12.625510 15.949860 -1.181510 -5.616820 -12.216544 7.248066 -15.877582 12.186960 5.899528 20.731502 -3.180553 -41.860413 -9.145128 2.385052 -5.348853 -0.179070 3.543261 2.945660 0.243970 0.314790 0.376470 17.809633 -8.157362 2.899428 -15.462669 9.031993 -29.854491 13.812939 -9.918700 34.063079 -0.734727 -5.244018 1.981648 -0.026080 -0.161630 0.361090 -1.980565 -5.624273 -9.328894 5.937841 -0.751150 60.499501 4.121987 3.457867 17.968555 5.540286 -1.060217 -21.834656 -7.528058 10.597121 56.744282 -8.924380 13.140710 -13.478950 -14.772921 -33.940382 9.880180 -21.680831 -4.782078 -13.943722 0.353062 -40.274306 -2.654973 -3.008127 3.349590 0.533320 -0.173180 0.553170 -0.072010 4.137262 39.255489 14.371086 17.995272 6.334241 -12.935060 -19.369915 22.553883 -4.086905 2.468474 -1.448851 0.110660 -0.005730 0.006420 -0.007640 
-12.461390 16.017550 -1.093570 -5.174262 -11.907704 7.655083 -15.798498 12.341699 5.911885 19.988410 -3.690067 -40.385046 -11.586488 2.430503 -4.694930 -0.164801 3.660648 2.928810 0.180980 0.244710 0.329350 17.822896 -8.546739 2.594687 -14.955475 7.717094 -28.362376 9.856373 -7.990898 31.679305 -0.542652 -4.453603 2.278123 -0.052180 -0.121550 0.315710 -2.075920 -5.374211 -9.140331 6.936809 -1.336088 59.144657 3.302521 3.055383 17.720319 5.560057 -1.420172 -21.021294 -7.774256 10.658867 54.178502 -8.551830 13.193020 -12.440910 -13.575133 -32.598186 10.212207 -22.102099 -2.196814 -14.321918 -4.074950 -42.954189 -1.504884 -3.002986 3.349510 0.515700 -0.157840 0.497270 -0.079630 2.804921 37.737671 14.736093 21.110188 4.736586 -12.281473 -19.665872 22.811971 -4.227514 2.459336 -1.421697 0.065160 0.012950 0.029610 -0.009380 
-12.284700 16.091200 -1.003200 -4.352037 -11.675383 8.218194 -15.777269 12.531835 5.902596 18.400693 -4.451308 -39.099272 -13.399056 2.259495 -5.068459 -0.115007 3.688359 2.967868 0.061770 0.112820 0.245570 17.786104 -8.774487 2.359769 -15.320227 6.397512 -27.216362 7.476261 -6.661875 28.379372 -0.381733 -3.787776 2.549535 -0.132870 -0.054020 0.294060 -2.024686 -5.441141 -9.027995 7.207987 -1.271966 57.998832 3.206992 2.961434 16.782648 5.881547 -1.292155 -20.609921 -7.110574 10.241527 52.300775 -9.088570 13.631430 -10.458930 -12.910514 -31.456052 10.703424 -23.070029 0.241892 -14.752041 -8.202821 -45.327853 -0.315213 -3.038809 3.339658 0.485970 -0.118110 0.440120 -0.091020 1.488929 36.444212 15.195876 24.005663 2.318392 -12.237095 -19.528053 23.999729 -4.273426 2.437130 -1.375105 0.028160 0.022340 0.077430 0.002990 
-12.089590 16.161000 -0.918080 -3.642467 -11.876042 8.639717 -15.731307 12.696938 5.788552 16.071936 -5.150130 -38.060242 -13.961144 2.113789 -5.298383 -0.143230 3.596282 3.047775 -0.061150 -0.047540 0.168750 17.774340 -8.970737 2.248967 -16.194585 5.340679 -26.286413 6.487040 -5.853469 24.664012 -0.271571 -3.276113 2.755269 -0.220670 0.018100 0.291650 -2.048180 -5.410050 -8.920119 7.824117 -1.340890 57.429561 2.497600 3.239494 15.398244 6.283819 -1.219426 -20.035616 -6.704093 10.125865 50.443899 -9.650580 14.077680 -9.890990 -11.760359 -29.938848 10.979230 -24.082171 1.850959 -14.749962 -11.969227 -46.844621 0.881902 -3.117677 3.279370 0.504590 -0.085160 0.393820 -0.115820 -0.456325 34.743415 15.347013 27.604387 0.439997 -12.393994 -19.546259 24.775450 -4.241212 2.399357 -1.287732 -0.026560 0.050250 0.159090 -0.005410 
-11.893580 16.227540 -0.835190 -3.143946 -12.250794 9.005325 -15.687678 12.821554 5.623802 13.484821 -5.743424 -37.426368 -13.752084 2.061572 -5.098097 -0.156363 3.374977 3.168545 -0.122290 -0.128660 0.134760 17.776076 -9.100920 2.239598 -17.051464 4.573511 -25.628976 6.434805 -5.378282 21.235542 -0.209382 -2.954937 2.890666 -0.275240 0.054260 0.299560 -2.096363 -5.343784 -8.824380 8.536695 -1.358954 56.892720 1.745867 3.592718 14.375368 6.707847 -1.436355 -19.312908 -6.822152 10.217064 47.993388 -10.953320 14.853260 -9.605680 -10.388501 -27.962699 10.924301 -24.443556 2.785846 -14.511454 -16.355951 -47.805425 2.491671 -3.178691 3.267836 0.495880 -0.059520 0.370070 -0.116300 -2.658588 32.830137 15.222293 30.982522 -0.766239 -12.473425 -19.127335 25.135590 -4.092749 2.397803 -1.257614 -0.042170 0.044250 0.180010 -0.001930 
-11.693940 16.296320 -0.755230 -3.114115 -12.787372 8.871894 -15.618217 12.903755 5.423088 11.059332 -5.955403 -36.374607 -13.216849 2.053976 -5.001312 -0.153782 3.125552 3.265843 -0.137600 -0.125770 0.108940 17.811681 -9.231189 2.277098 -17.408904 4.153068 -24.936591 6.823976 -5.165277 19.111774 -0.182986 -2.829083 2.940908 -0.285430 0.048020 0.289750 -2.233416 -5.153217 -8.703302 9.675052 -1.687742 56.822365 0.754331 3.820532 14.033405 6.913724 -2.526465 -18.693559 -8.788305 11.073261 44.916690 -11.328640 15.168630 -10.148060 -7.866970 -25.663064 10.797319 -25.045819 3.265708 -14.396155 -21.065644 -48.773707 4.224926 -3.200196 3.307262 0.462850 -0.064710 0.359200 -0.119770 -5.488862 31.036119 14.909283 34.043238 -1.294092 -12.439966 -18.341649 24.759957 -3.769783 2.431961 -1.260901 -0.024060 0.024490 0.179940 0.014430 
-11.501520 16.365130 -0.681490 -3.101708 -13.175936 8.152458 -15.575613 13.049480 5.219667 8.638624 -5.975884 -34.954682 -12.680656 2.102901 -4.827565 -0.160446 2.942466 3.357936 -0.151430 -0.130420 0.089990 17.828078 -9.355015 2.277220 -17.152568 3.968920 -24.223815 7.030455 -5.251642 19.261238 -0.176255 -2.912109 2.923149 -0.289860 0.067310 0.289010 -2.300683 -5.098036 -8.565065 10.378778 -1.803276 57.301612 0.204225 3.964090 14.036493 7.090771 -3.244574 -18.202362 -9.609788 11.529701 41.448485 -11.653620 15.618060 -10.502850 -5.241318 -23.621686 10.772894 -24.790633 4.179461 -14.285033 -27.309764 -49.278764 6.540095 -3.226481 3.359883 0.432240 -0.048250 0.340030 -0.112840 -8.425508 29.328735 14.489723 36.133799 -1.527592 -12.337436 -17.277077 24.060322 -3.359217 2.462536 -1.280039 -0.021850 0.016420 0.176890 0.027330 
